<?xml version="1.0" encoding="UTF-8" standalone="no"?>
<svg
   xmlns:dc="http://purl.org/dc/elements/1.1/"
   xmlns:cc="http://creativecommons.org/ns#"
   xmlns:rdf="http://www.w3.org/1999/02/22-rdf-syntax-ns#"
   xmlns:svg="http://www.w3.org/2000/svg"
   xmlns="http://www.w3.org/2000/svg"
   style="enable-background:new"
   id="svg8"
   version="1.1"
   viewBox="0 0 150 150"
   height="150mm"
   width="150mm">
  <defs
     id="defs2" />
  <metadata
     id="metadata5">
    <rdf:RDF>
      <cc:Work
         rdf:about="">
        <dc:format>image/svg+xml</dc:format>
        <dc:type
           rdf:resource="http://purl.org/dc/dcmitype/StillImage" />
        <dc:title></dc:title>
      </cc:Work>
    </rdf:RDF>
  </metadata>
  <g
     transform="translate(0,-147)"
     id="layer1">
    <path
       id="rect3713"
       d="M 1.88e-4,146.99993 V 297.00007 H 149.99981 V 146.99993 Z m 31.5836,16.76848 c 3.292594,0 5.695821,0.82332 7.210415,2.46962 1.547519,1.6463 2.354154,3.96714 2.420006,6.9634 h -5.778458 c 0.06585,-1.25119 -0.279849,-2.22207 -1.037148,-2.91352 -0.757296,-0.69144 -1.744866,-1.03714 -2.963124,-1.03714 -1.38289,0 -2.419996,0.31285 -3.111439,0.93844 -0.658519,0.59267 -0.988055,1.465 -0.988055,2.61741 0,0.92193 0.19762,1.69571 0.59273,2.32131 0.39511,0.62559 1.119365,1.25129 2.172994,1.87688 0.724371,0.46096 1.481989,0.87237 2.272213,1.23455 0.790223,0.32926 1.564007,0.69165 2.321306,1.08676 0.757295,0.36218 1.498232,0.77358 2.222603,1.23455 0.757295,0.46096 1.448699,1.00428 2.074291,1.62987 1.053631,1.02071 1.794049,2.12351 2.222087,3.30885 0.428038,1.18533 0.642337,2.56813 0.642337,4.14858 0,3.32548 -0.872853,5.97641 -2.617928,7.95197 -1.745072,1.97555 -4.247367,2.96313 -7.507033,2.96313 -3.325519,0 -5.827813,-0.80664 -7.507036,-2.42001 -1.646296,-1.64629 -2.601019,-4.11574 -2.864424,-7.40833 h 5.87716 c 0.164629,1.28411 0.609396,2.23883 1.333767,2.86442 0.757296,0.59267 1.925802,0.88935 3.506248,0.88935 1.119481,0 2.025213,-0.34573 2.716628,-1.03714 0.691446,-0.69145 1.037148,-1.61384 1.037148,-2.76624 0,-0.98778 -0.263319,-1.84343 -0.790133,-2.56781 -0.526815,-0.72437 -1.498219,-1.43249 -2.914034,-2.1239 -1.21826,-0.59267 -2.452981,-1.23453 -3.704166,-1.92598 -1.251186,-0.69144 -2.469743,-1.53145 -3.655076,-2.51922 -1.086554,-0.95486 -1.893192,-2.00813 -2.420006,-3.16053 -0.49389,-1.18534 -0.740524,-2.70006 -0.740524,-4.54391 0,-3.12797 0.889021,-5.58073 2.667021,-7.35873 1.778,-1.81092 4.214593,-2.71663 7.30963,-2.71663 z m 25.371579,0.49403 h 6.371187 l 7.605738,35.8066 h -6.815605 l -1.234551,-5.77846 h -5.828067 l -1.234551,5.77846 h -6.420797 z m 21.667415,0 h 6.46988 l 4.0504,13.77952 4.3956,-13.77952 h 6.02496 v 35.8066 h -5.23483 v -21.97799 l -5.18573,15.70602 -5.18624,-15.70602 v 21.97799 h -5.33404 z m 31.051848,0 h 16.74264 v 5.67976 h -5.28443 v 24.39799 h 5.28443 v 5.72885 h -16.74264 v -5.72885 h 5.38313 V 169.9422 h -5.38313 z m -49.656918,13.08809 -2.0252,11.35951 h 3.901572 z m 0.197403,26.49916 c 3.292594,0 5.827736,1.00425 7.605739,3.01273 1.777997,1.97555 2.667018,4.79071 2.667018,8.44548 v 13.92783 c 0,3.62186 -0.889021,6.437 -2.667018,8.44548 -1.778003,1.97556 -4.313145,2.96313 -7.605739,2.96313 -3.424295,0 -6.008973,-1.0371 -7.754048,-3.11144 -1.745073,-2.07434 -2.617928,-4.83995 -2.617928,-8.29717 V 215.3079 c 0,-3.49014 0.872855,-6.27244 2.617928,-8.34678 1.745075,-2.07433 4.329753,-3.11143 7.754048,-3.11143 z m -39.003303,0.49402 h 9.927043 c 3.292594,0 5.877271,0.93804 7.754048,2.81482 1.876777,1.84384 2.815333,4.46138 2.815333,7.85275 0,2.96333 -0.658553,5.23567 -1.975591,6.81612 -1.28411,1.54752 -2.995935,2.61747 -5.13612,3.21014 l 7.852751,15.11277 h -8.001063 l -6.815604,-14.17433 v 14.17433 h -6.420797 z m 57.41097,0 h 6.46988 l 4.0504,13.77952 4.3956,-13.77952 h 6.02496 v 35.8066 h -5.23483 v -21.97798 l -5.18573,15.7055 -5.18624,-15.7055 v 21.97798 h -5.33404 z m 29.471068,0 h 10.12496 c 6.51933,0 9.77873,3.65464 9.77873,10.96419 v 13.87822 c 0,7.17786 -3.2594,10.76679 -9.77873,10.76679 h -10.12496 z m -47.878735,4.93872 c -1.218258,0 -2.239198,0.4114 -3.062345,1.23455 -0.823148,0.82313 -1.234549,2.09072 -1.234549,3.80287 v 15.85381 c 0,1.74508 0.411401,3.02933 1.234549,3.85248 0.823147,0.79022 1.844087,1.18546 3.062345,1.18546 1.185334,0 2.189589,-0.4114 3.012737,-1.23455 0.823147,-0.85608 1.234551,-2.12417 1.234551,-3.80339 v -15.85381 c 0,-1.67923 -0.411404,-2.93013 -1.234551,-3.75326 -0.823148,-0.85607 -1.827403,-1.28416 -3.012737,-1.28416 z m 53.805505,0.49403 v 24.49669 h 4.19819 c 2.56822,0 3.85248,-1.81089 3.85248,-5.43274 v -13.1377 c 0,-1.71215 -0.34571,-3.1278 -1.03715,-4.24729 -0.65852,-1.11948 -1.59707,-1.67896 -2.81533,-1.67896 z m -86.388011,0.2961 v 11.85354 h 2.963127 c 1.44874,0 2.568229,-0.56 3.358452,-1.67948 0.823148,-1.11948 1.234548,-2.55182 1.234548,-4.2969 0,-2.27188 -0.444251,-3.81945 -1.333251,-4.64261 -0.889,-0.82314 -2.222272,-1.23455 -4.000272,-1.23455 z m -6.223394,34.35191 h 6.322097 v 14.57017 h 6.914306 v -14.57017 h 6.420797 v 35.80712 h -6.420797 v -15.11277 h -6.914306 v 15.11277 h -6.322097 z m 35.546152,0 h 6.371187 l 7.605738,35.80712 h -6.815605 l -1.234551,-5.77846 h -5.828067 l -1.234551,5.77846 h -6.420797 z m 22.013125,0 h 7.30963 l 7.26054,20.94136 v -20.94136 h 5.67924 v 35.80712 h -6.27197 l -8.14937,-20.94084 v 20.94084 h -5.82807 z m 35.842258,0 h 6.37118 l 7.60626,35.80712 h -6.81612 l -1.23455,-5.77846 h -5.82807 l -1.23455,5.77846 h -6.42028 z m -54.793038,13.08809 -2.0252,11.35951 h 3.901572 z m 57.855378,0 -2.0252,11.35951 h 3.90209 z"
       style="stroke-width:0.39473686"
       fill="white" />
  </g>
</svg>
